<svg xmlns="http://www.w3.org/2000/svg" xml:space="preserve" width="1500" height="457" data-id="lg_D5GWca1SPCF5mbaSnz" data-version="1" viewBox="0 0 1500 457"><g data-padding="20"><g transform="translate(10 8.16)scale(.96429)"><path fill="#0718c4" d="M689.285 34.17a179.25 179.25 0 1 0 0 358.5 179.25 179.25 0 1 0 0-358.5"/><rect width="511.799" height="456.52" x="134.135" y="-399.75" fill="none" rx="0" ry="0" transform="translate(424.6 399.99)"/><path fill="#77d4fc" d="M720.005 361.58q-29.08 0-55.75-7.88-26.66-7.88-47.47-24.24-20.8-16.36-32.92-41.01-12.12-24.64-12.12-58.17 0-38.79 13.93-66.46 13.94-27.68 36.97-45.25t50.5-25.86q27.47-8.28 54.14-8.28 12.52 0 26.26 2.02 13.73 2.02 25.45 4.85 11.71 2.83 18.18 5.25l-4.04 27.47q-21.82-9.29-43.03-16.16-21.21-6.86-47.47-6.86-42.82 9.69-65.45 42.21-22.62 32.53-22.62 80.6 0 40.4 14.75 68.08 14.74 27.67 40.19 41.61 25.46 13.94 58.18 13.94 21.41 0 42.42-5.46 21.01-5.45 33.53-16.36v22.22q-12.12 4.85-27.07 7.88-14.94 3.03-29.69 4.44-14.75 1.42-26.87 1.42m255.32 0q-29.09 0-55.75-7.88t-47.47-24.24-32.93-41.01q-12.12-24.64-12.12-58.17 0-38.79 13.94-66.46 13.94-27.68 36.97-45.25t50.5-25.86q27.47-8.28 54.13-8.28 12.53 0 26.26 2.02 13.74 2.02 25.46 4.85 11.71 2.83 18.18 5.25l-4.04 27.47q-21.82-9.29-43.03-16.16-21.21-6.86-47.47-6.86-42.82 9.69-65.45 42.21-22.62 32.53-22.62 80.6 0 40.4 14.74 68.08 14.75 27.67 40.2 41.61t58.18 13.94q21.41 0 42.42-5.46 21.01-5.45 33.53-16.36v22.22q-12.12 4.85-27.07 7.88t-29.69 4.44q-14.75 1.42-26.87 1.42"/><rect width="316.309" height="32.77" x="231.88" y="-187.875" fill="none" rx="0" ry="0" transform="translate(424.61 606.35)"/><path fill="#24a8df" d="M668.675 443.81q-2.08 0-4-.56-1.91-.57-3.41-1.74-1.49-1.18-2.36-2.95-.87-1.76-.87-4.17 0-2.79 1-4.77 1-1.99 2.65-3.25 1.66-1.26 3.63-1.86 1.97-.59 3.89-.59.89 0 1.88.14.99.15 1.83.35.84.21 1.3.38l-.29 1.97q-1.56-.67-3.09-1.16-1.52-.49-3.4-.49-3.08.69-4.7 3.03-1.63 2.33-1.63 5.78 0 2.9 1.06 4.89t2.89 2.99 4.17 1q1.54 0 3.05-.39t2.41-1.18v1.6q-.87.35-1.95.56-1.07.22-2.13.32t-1.93.1m16.23 0q-2.14 0-3.51-.59-1.36-.6-2.13-1.51t-1.08-1.94q-.32-1.03-.4-1.93-.07-.9-.07-1.42v-12.15h2.96v12.38q0 .55.04 1.32.05.77.28 1.55t.77 1.48q.53.7 1.49 1.12t2.47.42q2.49 0 3.95-1.34 1.47-1.33 1.47-4.46v-12.47h1.27v11.77q0 .7-.07 1.68-.07.99-.4 2.05-.34 1.06-1.14 1.98-.79.93-2.21 1.5-1.42.56-3.69.56m27.48-.34-3.37.4-6.73-9.57h-2.23v9.17h-2.84v-19.2h6.26q1.89 0 3.4.56 1.5.57 2.39 1.66.88 1.08.88 2.68 0 2.06-1.56 3.26-1.57 1.2-3.98 1.64Zm-12.33-17.64v7.6h1.86q2.11 0 3.23-.61t1.55-1.55q.44-.94.44-1.96 0-.14-.08-.65-.07-.51-.36-1.16t-.94-1.25q-.65-.59-1.81-.91-.84 0-1.99.15-1.14.14-1.9.34m30.83 17.64-3.37.4-6.72-9.57h-2.24v9.17h-2.84v-19.2h6.27q1.88 0 3.39.56 1.51.57 2.39 1.66.89 1.08.89 2.68 0 2.06-1.57 3.26t-3.97 1.64Zm-12.33-17.64v7.6h1.86q2.12 0 3.23-.61 1.12-.61 1.55-1.55.44-.94.44-1.96 0-.14-.07-.65-.08-.51-.37-1.16t-.94-1.25q-.65-.59-1.81-.91-.84 0-1.99.15-1.14.14-1.9.34m27.17 17.65h-11.52v-19.2h11.63l-.29 1.94-5.39-.9q-.84 0-1.57.13-.72.13-1.56.36v7.05h6.43v1.1h-6.43v8.47l8.99-.9Zm19.38.31h-.49l-12.71-15.89h-.11v15.58h-1.28v-19.2h2.15l11.05 13.95h.11v-13.95h1.28Zm14.05.02q-2.08 0-4-.56-1.91-.57-3.41-1.74-1.49-1.18-2.36-2.95-.87-1.76-.87-4.17 0-2.79 1-4.77 1-1.99 2.65-3.25 1.66-1.26 3.63-1.86 1.97-.59 3.89-.59.89 0 1.88.14.99.15 1.83.35.84.21 1.3.38l-.29 1.97q-1.56-.67-3.09-1.16-1.52-.49-3.4-.49-3.08.69-4.7 3.03-1.63 2.33-1.63 5.78 0 2.9 1.06 4.89t2.89 2.99 4.17 1q1.54 0 3.05-.39t2.41-1.18v1.6q-.87.35-1.95.56-1.07.22-2.13.32t-1.93.1m16.83-.33h-2.81v-7.14l-6.55-12.06h3.16l5.36 11.02 5.02-11.02h1.45l-5.63 11.92Zm24.91.33q-2.08 0-4-.56-1.91-.57-3.41-1.74-1.49-1.18-2.36-2.95-.87-1.76-.87-4.17 0-2.79 1-4.77 1-1.99 2.66-3.25 1.65-1.26 3.62-1.86 1.97-.59 3.89-.59.9 0 1.88.14.99.15 1.83.35.84.21 1.3.38l-.29 1.97q-1.56-.67-3.09-1.16-1.52-.49-3.4-.49-3.08.69-4.7 3.03-1.62 2.33-1.62 5.78 0 2.9 1.05 4.89 1.06 1.99 2.89 2.99t4.18 1q1.53 0 3.04-.39t2.41-1.18v1.6q-.87.35-1.95.56-1.07.22-2.13.32t-1.93.1m16.52 0q-2.4 0-4.37-1.08-1.98-1.09-3.14-3.19-1.16-2.11-1.16-5.15 0-2.38.64-4.15t1.73-2.97q1.08-1.2 2.43-1.94t2.79-1.08q1.43-.33 2.77-.33 2.43 0 4.4 1.07 1.98 1.08 3.14 3.16 1.16 2.09 1.16 5.14 0 2.37-.64 4.14t-1.74 2.99-2.45 1.97q-1.35.76-2.79 1.09-1.43.33-2.77.33m.85-.95q1.74 0 2.97-.84 1.23-.85 2-2.18t1.13-2.9.36-2.99q0-1.79-.36-3.4t-1.19-2.83-2.2-1.92q-1.38-.69-3.44-.69-1.94.67-3.22 2.03-1.27 1.36-1.88 3.13t-.61 3.68q0 1.77.36 3.38t1.12 2.86q.75 1.25 1.98 1.96 1.24.71 2.98.71m27.73.93h-.49l-12.71-15.89h-.11v15.58h-1.28v-19.2h2.15l11.05 13.95h.11v-13.95h1.28Zm11.97.14h-.47l-8.61-19.66h3.16l6.38 15.72 5.74-15.72h1.45Zm22.08-.45h-11.52v-19.2h11.63l-.29 1.94-5.39-.9q-.84 0-1.57.13-.72.13-1.56.36v7.05h6.43v1.1h-6.43v8.47l8.99-.9Zm19.94-.01-3.37.4-6.72-9.57h-2.24v9.17h-2.84v-19.2h6.26q1.89 0 3.4.56 1.51.57 2.39 1.66.88 1.08.88 2.68 0 2.06-1.56 3.26-1.57 1.2-3.97 1.64Zm-12.33-17.64v7.6h1.86q2.12 0 3.23-.61 1.12-.61 1.55-1.55.44-.94.44-1.96 0-.14-.07-.65-.08-.51-.37-1.16t-.94-1.25q-.65-.59-1.81-.91-.84 0-1.99.15-1.14.14-1.9.34m22.22 17.65h-2.82v-17.81q-.46-.12-.92-.17-.47-.06-1.05-.06l-3.91.9-.18-2.06h14.94l-.15 2.06-3.94-.9q-.58 0-1.05.06-.46.05-.92.17Zm20.47 0h-11.51v-19.2h11.63l-.29 1.94-5.4-.9q-.84 0-1.56.13-.73.13-1.57.36v7.05h6.44v1.1h-6.44v8.47l8.99-.9Zm19.95-.01-3.36.4-6.73-9.57h-2.23v9.17h-2.84v-19.2h6.26q1.88 0 3.39.56 1.51.57 2.39 1.66.89 1.08.89 2.68 0 2.06-1.57 3.26-1.56 1.2-3.97 1.64Zm-12.32-17.64v7.6h1.85q2.12 0 3.24-.61 1.11-.61 1.55-1.55.43-.94.43-1.96 0-.14-.07-.65t-.36-1.16-.94-1.25q-.66-.59-1.82-.91-.84 0-1.98.15-1.15.14-1.9.34"/></g><path fill="transparent" stroke="transparent" d="M492.06 0h560v457h-560z"/></g></svg>